# xmcd CD database file
#
# Track frame offsets:
#	150
#	13130
#	26914
#	40519
#	54108
#	68211
#	79898
#	92387
#	106071
#	120091
#	133375
#	148374
#	161951
#	176356
#	189567
#	203663
#	215801
#	230130
#	245883
#	261570
#	275348
#	288592
#	302320
#
# Disc length: 4224 seconds
#
# Revision: 3
# Processed by: cddbd v1.5.2PL0 Copyright (c) Steve Scherf et al.
# Submitted via: CDex 1.51
#
DISCID=56107e17
DTITLE=Thelonious Monk - The Ultimate Jazz Archive 24 - Swing to BeBop Modern Jazz
DYEAR=1900
DGENRE=Jazz
TTITLE0=Humph
TTITLE1=Evonce
TTITLE2=Suburban Eyes
TTITLE3=Thelonious
TTITLE4=Epistrophy
TTITLE5=Evidence
TTITLE6=Mysterioso
TTITLE7=Nice Work If You Can Get It
TTITLE8=Ruby My Dear
TTITLE9=Well You Needn't
TTITLE10=April In Paris
TTITLE11=Off Minor
TTITLE12=Introspection
TTITLE13=In Walked Bud
TTITLE14=Monk's Mood
TTITLE15=Who Knows
TTITLE16='round Midnight
TTITLE17=Four In One
TTITLE18=Four In One (Alternate Take)
TTITLE19=Eronel
TTITLE20=Stright No Chaser
TTITLE21=Willow Weep For Me
TTITLE22=Ask Me Now
EXTD=
EXTT0=
EXTT1=
EXTT2=
EXTT3=
EXTT4=
EXTT5=
EXTT6=
EXTT7=
EXTT8=
EXTT9=
EXTT10=
EXTT11=
EXTT12=
EXTT13=
EXTT14=
EXTT15=
EXTT16=
EXTT17=
EXTT18=
EXTT19=
EXTT20=
EXTT21=
EXTT22=
PLAYORDER=
